<svg width="32" height="29" viewBox="0 0 32 29" fill="none" xmlns="http://www.w3.org/2000/svg">
<g filter="url(#filter0_d_5_221)">
<path d="M15.5858 20.8932L15.5777 20.8897L15.552 20.8757C15.4018 20.7931 15.2529 20.7083 15.1052 20.6214C13.3293 19.5661 11.6697 18.3265 10.1538 16.923C7.46933 14.4182 4.625 10.7012 4.625 6.12319C4.625 2.70719 7.49967 -0.00180931 10.9693 -0.00180931C11.9339 -0.00653364 12.8871 0.206255 13.758 0.62073C14.629 1.03521 15.3953 1.6407 16 2.39219C16.6048 1.64055 17.3713 1.03496 18.2425 0.620476C19.1137 0.205994 20.0671 -0.00670932 21.0318 -0.00180931C24.5003 -0.00180931 27.375 2.70719 27.375 6.12319C27.375 10.7024 24.5307 14.4194 21.8462 16.9219C20.3304 18.3253 18.6707 19.565 16.8948 20.6202C16.7471 20.7075 16.5982 20.7927 16.448 20.8757L16.4223 20.8897L16.4142 20.8944L16.4107 20.8955C16.2842 20.9625 16.1432 20.9976 16 20.9976C15.8568 20.9976 15.7158 20.9625 15.5893 20.8955L15.5858 20.8932Z" fill="white"/>
<path d="M16 20.4976C15.9451 20.4976 15.891 20.4856 15.8414 20.4626L15.8251 20.4517L15.7963 20.4394L15.793 20.4376C15.7928 20.4375 15.7926 20.4374 15.7924 20.4373C15.6469 20.3572 15.5026 20.2751 15.3595 20.1909C13.6146 19.1539 11.9839 17.9359 10.4944 16.557C7.84361 14.0834 5.125 10.4909 5.125 6.12319C5.125 3.00322 7.75549 0.498191 10.9693 0.498197L10.9718 0.498185C11.8612 0.493828 12.7401 0.690036 13.5432 1.07221C14.3463 1.45439 15.0529 2.01271 15.6104 2.70564L16 3.18977L16.3896 2.70564C16.9472 2.01257 17.654 1.45416 18.4573 1.07198C19.2606 0.689795 20.1397 0.493666 21.0293 0.498191H21.0318C24.2444 0.498191 26.875 3.00316 26.875 6.12319C26.875 10.492 24.1565 14.0845 21.5059 16.5555C20.0161 17.9348 18.3851 19.1531 16.6397 20.1902C16.4968 20.2746 16.3527 20.357 16.2075 20.4373C16.2074 20.4374 16.2073 20.4374 16.2072 20.4375C16.2069 20.4377 16.2065 20.4379 16.2061 20.4381L16.1766 20.4537C16.1222 20.4825 16.0616 20.4976 16 20.4976Z" stroke="black"/>
</g>
<defs>
<filter id="filter0_d_5_221" x="0.625" y="-0.00189209" width="30.75" height="28.9995" filterUnits="userSpaceOnUse" color-interpolation-filters="sRGB">
<feFlood flood-opacity="0" result="BackgroundImageFix"/>
<feColorMatrix in="SourceAlpha" type="matrix" values="0 0 0 0 0 0 0 0 0 0 0 0 0 0 0 0 0 0 127 0" result="hardAlpha"/>
<feOffset dy="4"/>
<feGaussianBlur stdDeviation="2"/>
<feComposite in2="hardAlpha" operator="out"/>
<feColorMatrix type="matrix" values="0 0 0 0 0 0 0 0 0 0 0 0 0 0 0 0 0 0 0.25 0"/>
<feBlend mode="normal" in2="BackgroundImageFix" result="effect1_dropShadow_5_221"/>
<feBlend mode="normal" in="SourceGraphic" in2="effect1_dropShadow_5_221" result="shape"/>
</filter>
</defs>
</svg>
